<svg width="100%" height="100%" viewBox="0 0 24 24" version="1.1" xmlns="http://www.w3.org/2000/svg" xmlns:xlink="http://www.w3.org/1999/xlink" xml:space="preserve" xmlns:serif="http://www.serif.com/" style="fill-rule:evenodd;clip-rule:evenodd;stroke-linejoin:round;stroke-miterlimit:2;"><g id="Icon"><path d="M22.75,7.75l-21.5,0l-0,11.25c0,2.071 1.679,3.75 3.75,3.75l14,0c2.071,-0 3.75,-1.679 3.75,-3.75l-0,-11.25Zm-10.262,3.413l-2.4,7.2c-0.13,0.393 0.082,0.818 0.475,0.949c0.393,0.13 0.818,-0.082 0.949,-0.475l2.4,-7.2c0.13,-0.393 -0.082,-0.818 -0.475,-0.949c-0.393,-0.13 -0.818,0.082 -0.949,0.475Zm2.082,1.967l1.869,1.87c0,-0 -1.869,1.87 -1.869,1.87c-0.293,0.292 -0.293,0.768 -0,1.06c0.292,0.293 0.768,0.293 1.06,0l2.4,-2.4c0.293,-0.293 0.293,-0.767 0,-1.06l-2.4,-2.4c-0.292,-0.293 -0.768,-0.293 -1.06,-0c-0.293,0.292 -0.293,0.768 -0,1.06Zm-6.2,-1.06l-2.4,2.4c-0.293,0.293 -0.293,0.767 -0,1.06l2.4,2.4c0.292,0.293 0.768,0.293 1.06,0c0.293,-0.292 0.293,-0.768 0,-1.06l-1.869,-1.87c-0,0 1.869,-1.87 1.869,-1.87c0.293,-0.292 0.293,-0.768 0,-1.06c-0.292,-0.293 -0.768,-0.293 -1.06,-0Zm-7.12,-5.82l21.5,0l-0,-1.25c-0,-2.071 -1.679,-3.75 -3.75,-3.75l-14,0c-2.071,0 -3.75,1.679 -3.75,3.75l-0,1.25Zm11.5,-3c0.414,0 0.75,0.336 0.75,0.75c0,0.414 -0.336,0.75 -0.75,0.75c-0.414,0 -0.75,-0.336 -0.75,-0.75c0,-0.414 0.336,-0.75 0.75,-0.75Zm2.75,0c0.414,0 0.75,0.336 0.75,0.75c0,0.414 -0.336,0.75 -0.75,0.75c-0.414,0 -0.75,-0.336 -0.75,-0.75c0,-0.414 0.336,-0.75 0.75,-0.75Zm2.75,0c0.414,0 0.75,0.336 0.75,0.75c0,0.414 -0.336,0.75 -0.75,0.75c-0.414,0 -0.75,-0.336 -0.75,-0.75c0,-0.414 0.336,-0.75 0.75,-0.75Z" id="id_101" style="fill: #2F58CD;"></path></g></svg>