<?xml version="1.0" standalone="no"?>
<!DOCTYPE svg PUBLIC "-//W3C//DTD SVG 20010904//EN"
 "http://www.w3.org/TR/2001/REC-SVG-20010904/DTD/svg10.dtd">
<svg version="1.0" xmlns="http://www.w3.org/2000/svg"
 width="800.000000pt" height="600.000000pt" viewBox="0 0 800.000000 600.000000"
 preserveAspectRatio="xMidYMid meet">

<g transform="translate(0.000000,600.000000) scale(0.100000,-0.100000)"
fill="#fff" stroke="none">
<path d="M3694 4563 c3 -6 3 -13 -2 -15 -4 -1 -141 -295 -305 -653 -163 -357
-465 -1017 -670 -1465 l-373 -815 60 -12 c81 -16 220 -16 275 0 l43 13 159
349 c87 191 161 350 163 352 2 3 41 6 85 7 44 1 82 4 84 7 6 8 137 298 137
303 0 3 -35 6 -77 8 -43 2 -77 7 -77 11 3 20 500 1145 504 1142 3 -2 113 -251
245 -554 l240 -550 187 -1 187 0 -28 63 c-37 82 -461 1010 -663 1452 -88 193
-165 355 -171 360 -7 7 -8 6 -3 -2z"/>
<path d="M4255 4495 c-20 -44 -81 -177 -136 -296 l-98 -217 87 -190 c48 -105
90 -188 94 -184 3 4 23 45 43 92 21 47 40 88 44 92 3 4 119 -252 257 -567 138
-316 249 -577 246 -580 -10 -10 -1002 -5 -1002 5 0 5 40 102 90 215 l90 206
-88 200 c-48 109 -89 199 -92 199 -7 -1 -852 -1851 -848 -1855 5 -5 65 -13
155 -21 45 -4 100 -2 147 7 66 11 76 16 84 38 18 51 305 676 313 681 10 7
1299 3 1305 -3 3 -3 76 -162 163 -353 l159 -349 49 -13 c50 -13 212 -11 289 5
l41 8 -92 200 c-51 110 -201 439 -335 730 -133 292 -389 850 -568 1240 -178
391 -332 728 -342 750 l-17 40 -38 -80z"/>
<path d="M4380 2273 c0 -5 66 -155 147 -334 l148 -325 81 -12 c44 -7 103 -12
131 -12 47 0 152 16 160 24 3 3 -209 475 -283 629 l-18 37 -183 0 c-101 0
-183 -3 -183 -7z"/>
</g>
</svg>
